GIL04_xslow1_ik
nRows=3
nColumns=375

# SIMM Motion File Header:
name GIL04_xslow1_ik
datacolumns 375
datarows 3
otherdata 1
range 1.15833000 1.17500000
endheader
time	pelvis_tx	pelvis_ty	pelvis_tz	pelvis_tilt	pelvis_list	pelvis_rotation	hip_flexion_r	hip_adduction_r	hip_rotation_r	knee_angle_r	ankle_angle_r	hip_flexion_l	hip_adduction_l	hip_rotation_l	knee_angle_l	ankle_angle_l	lumbar_extension	lumbar_bending	lumbar_rotation	subtalar_angle_r	mtp_angle_r	subtalar_angle_l	mtp_angle_l	asis_r_px	asis_r_py	asis_r_pz	asis_l_px	asis_l_py	asis_l_pz	midasis_px	midasis_py	midasis_pz	psis_r_px	psis_r_py	psis_r_pz	psis_l_px	psis_l_py	psis_l_pz	hip_r_px	hip_r_py	hip_r_pz	hip_l_px	hip_l_py	hip_l_pz	midhip_px	midhip_py	midhip_pz	epicondLat_r_px	epicondLat_r_py	epicondLat_r_pz	epicondMed_r_px	epicondMed_r_py	epicondMed_r_pz	thighwand_r_px	thighwand_r_py	thighwand_r_pz	upperleg1_r_px	upperleg1_r_py	upperleg1_r_pz	upperleg2_r_px	upperleg2_r_py	upperleg2_r_pz	malleolusLat_r_px	malleolusLat_r_py	malleolusLat_r_pz	malleolusMedv_r_px	malleolusMedv_r_py	malleolusMedv_r_pz	shankwand_r_px	shankwand_r_py	shankwand_r_pz	lowerleg1_r_px	lowerleg1_r_py	lowerleg1_r_pz	knee_r_px	knee_r_py	knee_r_pz	ankle_r_px	ankle_r_py	ankle_r_pz	toe_r_px	toe_r_py	toe_r_pz	epicondLat_l_px	epicondLat_l_py	epicondLat_l_pz	epicondMed_l_px	epicondMed_l_py	epicondMed_l_pz	thighwand_l_px	thighwand_l_py	thighwand_l_pz	upperleg1_l_px	upperleg1_l_py	upperleg1_l_pz	upperleg2_l_px	upperleg2_l_py	upperleg2_l_pz	malleolusLat_l_px	malleolusLat_l_py	malleolusLat_l_pz	malleolusMedv_l_px	malleolusMedv_l_py	malleolusMedv_l_pz	shankwand_l_px	shankwand_l_py	shankwand_l_pz	lowerleg1_l_px	lowerleg1_l_py	lowerleg1_l_pz	knee_l_px	knee_l_py	knee_l_pz	ankle_l_px	ankle_l_py	ankle_l_pz	toe_l_px	toe_l_py	toe_l_pz	subclavicle_r_px	subclavicle_r_py	subclavicle_r_pz	subclavicle_l_px	subclavicle_l_py	subclavicle_l_pz	neck_px	neck_py	neck_pz	sternalnotch_px	sternalnotch_py	sternalnotch_pz	xyphoidprocess_px	xyphoidprocess_py	xyphoidprocess_pz	midhip_tx	midhip_ty	midhip_tz	hip_r_tx	hip_r_ty	hip_r_tz	hip_l_tx	hip_l_ty	hip_l_tz	knee_r_tx	knee_r_ty	knee_r_tz	knee_l_tx	knee_l_ty	knee_l_tz	ankle_r_tx	ankle_r_ty	ankle_r_tz	ankle_l_tx	ankle_l_ty	ankle_l_tz	midasis_tx	midasis_ty	midasis_tz	asis_r_tx	asis_r_ty	asis_r_tz	asis_l_tx	asis_l_ty	asis_l_tz	psis_r_tx	psis_r_ty	psis_r_tz	psis_l_tx	psis_l_ty	psis_l_tz	epicondLat_r_tx	epicondLat_r_ty	epicondLat_r_tz	epicondLat_l_tx	epicondLat_l_ty	epicondLat_l_tz	epicondMed_r_tx	epicondMed_r_ty	epicondMed_r_tz	epicondMed_l_tx	epicondMed_l_ty	epicondMed_l_tz	malleolusLat_r_tx	malleolusLat_r_ty	malleolusLat_r_tz	malleolusLat_l_tx	malleolusLat_l_ty	malleolusLat_l_tz	malleolusMedv_r_tx	malleolusMedv_r_ty	malleolusMedv_r_tz	malleolusMedv_l_tx	malleolusMedv_l_ty	malleolusMedv_l_tz	neck_tx	neck_ty	neck_tz	subclavicle_r_tx	subclavicle_r_ty	subclavicle_r_tz	subclavicle_l_tx	subclavicle_l_ty	subclavicle_l_tz	sternalnotch_tx	sternalnotch_ty	sternalnotch_tz	xyphoidprocess_tx	xyphoidprocess_ty	xyphoidprocess_tz	thighwand_r_tx	thighwand_r_ty	thighwand_r_tz	thighwand_l_tx	thighwand_l_ty	thighwand_l_tz	upperleg1_r_tx	upperleg1_r_ty	upperleg1_r_tz	upperleg1_l_tx	upperleg1_l_ty	upperleg1_l_tz	upperleg2_r_tx	upperleg2_r_ty	upperleg2_r_tz	upperleg2_l_tx	upperleg2_l_ty	upperleg2_l_tz	shankwand_r_tx	shankwand_r_ty	shankwand_r_tz	shankwand_l_tx	shankwand_l_ty	shankwand_l_tz	lowerleg1_r_tx	lowerleg1_r_ty	lowerleg1_r_tz	lowerleg1_l_tx	lowerleg1_l_ty	lowerleg1_l_tz	toe_r_tx	toe_r_ty	toe_r_tz	toe_l_tx	toe_l_ty	toe_l_tz	ground_force_vx	ground_force_vy	ground_force_vz	ground_force_px	ground_force_py	ground_force_pz	ground_force_vx	ground_force_vy	ground_force_vz	ground_force_px	ground_force_py	ground_force_pz	ground_torque_x	ground_torque_y	ground_torque_z	ground_torque_x	ground_torque_y	ground_torque_z	ground_marker_px	ground_marker_py	ground_marker_pz	ground_marker_px	ground_marker_py	ground_marker_pz	ground_marker_px	ground_marker_py	ground_marker_pz	ground_marker_px	ground_marker_py	ground_marker_pz	ground_marker_px	ground_marker_py	ground_marker_pz	ground_marker_px	ground_marker_py	ground_marker_pz	ground_marker_px	ground_marker_py	ground_marker_pz	ground_marker_px	ground_marker_py	ground_marker_pz	ground_marker_px	ground_marker_py	ground_marker_pz	ground_marker_px	ground_marker_py	ground_marker_pz	ground_marker_px	ground_marker_py	ground_marker_pz	ground_marker_px	ground_marker_py	ground_marker_pz	ground_marker_px	ground_marker_py	ground_marker_pz	ground_marker_px	ground_marker_py	ground_marker_pz	ground_marker_px	ground_marker_py	ground_marker_pz	ground_marker_px	ground_marker_py	ground_marker_pz	ground_marker_px	ground_marker_py	ground_marker_pz	ground_marker_px	ground_marker_py	ground_marker_pz	ground_marker_px	ground_marker_py	ground_marker_pz	ground_marker_px	ground_marker_py	ground_marker_pz	ground_marker_px	ground_marker_py	ground_marker_pz	ground_marker_px	ground_marker_py	ground_marker_pz	ground_marker_px	ground_marker_py	ground_marker_pz	ground_marker_px	ground_marker_py	ground_marker_pz	ground_marker_px	ground_marker_py	ground_marker_pz	ground_marker_px	ground_marker_py	ground_marker_pz	ground_marker_px	ground_marker_py	ground_marker_pz	ground_marker_px	ground_marker_py	ground_marker_pz	ground_marker_px	ground_marker_py	ground_marker_pz	ground_marker_px	ground_marker_py	ground_marker_pz	ground_marker_px	ground_marker_py	ground_marker_pz	ground_marker_px	ground_marker_py	ground_marker_pz	ground_marker_px	ground_marker_py	ground_marker_pz	ground_marker_px	ground_marker_py	ground_marker_pz	ground_marker_px	ground_marker_py	ground_marker_pz	ground_marker_px	ground_marker_py	ground_marker_pz	ground_marker_px	ground_marker_py	ground_marker_pz
      1.15833000	      1.20676624	      0.73773848	     -0.21562829	     -0.23231571	      0.72869475	     -3.43335432	    -13.16952785	      0.30935559	      0.28855983	    -23.35837479	    -10.06907406	     11.92209712	      3.30589854	     -5.16059184	      2.85815038	     -7.40172674	     -4.16366481	     -4.14068925	      9.84603876	      0.00000000	      0.00000000	      0.00000000	      0.00000000	      1.30652496	      0.72467546	     -0.12974165	      1.32396134	      0.71794268	     -0.31563644	      1.21696519	      0.73768934	     -0.21501645	      1.17981178	      0.79160728	     -0.21849889	      1.18347646	      0.78476267	     -0.27288217	      1.15141338	      0.68899138	     -0.15850645	      1.15871862	      0.69050902	     -0.28015679	      1.15506600	      0.68975020	     -0.21933162	      1.10493640	      0.34987798	     -0.10865291	      1.10948262	      0.35109030	     -0.20905461	      1.13611125	      0.44853361	     -0.03537959	      1.19406643	      0.48956193	     -0.10130995	      1.17384201	      0.40779625	     -0.11255097	      0.89168423	      0.09063275	     -0.11871820	      0.90375653	      0.09204777	     -0.17759000	      0.93753012	      0.18850398	     -0.05003502	      0.98466598	      0.22062354	     -0.10997320	      1.07525102	      0.36967272	     -0.16883892	      0.88437915	      0.11379962	     -0.18444091	      0.94075659	     -0.00678087	     -0.14445962	      1.26602168	      0.36234536	     -0.33254706	      1.27063610	      0.35849653	     -0.22859006	      1.38817259	      0.47682534	     -0.32158718	      1.31766007	      0.52758176	     -0.26494849	      1.31310368	      0.44027397	     -0.25716756	      1.31276919	      0.04970053	     -0.32105588	      1.31608078	      0.05363881	     -0.25758646	      1.38350862	      0.16445117	     -0.32749784	      1.31477741	      0.20849251	     -0.30338999	      1.21966161	      0.37031408	     -0.26127718	      1.29862492	      0.06113586	     -0.24338405	      1.41643037	      0.03068816	     -0.29745050	      1.17874169	      1.13420184	     -0.17679733	      1.17530354	      1.14125931	     -0.29193114	      1.09621826	      1.13439607	     -0.23131863	      1.17876378	      1.12555923	     -0.23774364	      1.27122310	      1.01511121	     -0.24660895	      1.16265100	      0.68349500	     -0.22404400	      1.15271200	      0.68954200	     -0.15828100	      1.16128000	      0.68945800	     -0.28381800	      1.08005000	      0.38306700	     -0.16817900	      1.22238800	      0.38033300	     -0.25834000	      0.88072400	      0.11629600	     -0.16709600	      1.30042800	      0.06438300	     -0.25762300	      1.22077300	      0.75479400	     -0.21674000	      1.21420000	      0.75485900	     -0.12044500	      1.22734600	      0.75473000	     -0.31303500	      1.07156200	      0.79036800	     -0.20734900	      1.07418200	      0.78453000	     -0.26235100	      1.07655900	      0.38226800	     -0.11780600	      1.22204000	      0.37615800	     -0.30816400	      1.08128000	      0.37640100	     -0.21641400	      1.22119700	      0.37972500	     -0.20218700	      0.87615400	      0.11984500	     -0.13410000	      1.29312100	      0.06250200	     -0.29128800	      0.88276400	      0.12992900	     -0.19353000	      1.29472000	      0.06880300	     -0.22895500	      1.10931500	      1.13926500	     -0.23294700	      1.18886200	      1.09067000	     -0.16961200	      1.18138800	      1.08738200	     -0.29906900	      1.17862700	      1.07788000	     -0.23620000	      1.18933200	      0.93434100	     -0.23248200	      1.09289000	      0.46868700	     -0.03832300	      1.33191000	      0.50017300	     -0.30122100	      1.14149100	      0.52165200	     -0.10206800	      1.25352100	      0.54921800	     -0.25138500	      1.13582200	      0.43867500	     -0.11727600	      1.25706900	      0.46254200	     -0.23602800	      0.92852000	      0.21271100	     -0.06031400	      1.35505800	      0.18223600	     -0.30125500	      0.96772200	      0.25128100	     -0.12079900	      1.28321900	      0.22197600	     -0.27806300	      0.93088100	      0.03928300	     -0.18635300	      1.39259200	      0.05522800	     -0.26709000	     13.93673523	     81.35494296	      3.10739723	      0.94395953	      0.00000000	     -0.20135004	    -19.82985780	    225.94419534	      1.43917030	      1.27714966	      0.00000000	     -0.25827774	      0.00000000	     -0.15098376	      0.00000000	      0.00000000	      0.29323471	      0.00000000	      1.16265059	      0.68349504	     -0.22404377	      1.15271163	      0.68954170	     -0.15828119	      1.16128027	      0.68945789	     -0.28381798	      1.08004987	      0.38306695	     -0.16817883	      1.22238815	      0.38033348	     -0.25834021	      0.88072383	      0.11629608	     -0.16709603	      1.30042756	      0.06438325	     -0.25762340	      1.22077286	      0.75479448	     -0.21674001	      1.21420014	      0.75485873	     -0.12044520	      1.22734559	      0.75473022	     -0.31303483	      1.07156193	      0.79036766	     -0.20734900	      1.07418239	      0.78452998	     -0.26235107	      1.07655907	      0.38226780	     -0.11780598	      1.22204018	      0.37615824	     -0.30816436	      1.08127952	      0.37640053	     -0.21641412	      1.22119701	      0.37972501	     -0.20218743	      0.87615359	      0.11984485	     -0.13409953	      1.29312074	      0.06250209	     -0.29128823	      0.88276362	      0.12992862	     -0.19352967	      1.29471970	      0.06880344	     -0.22895466	      1.10931492	      1.13926494	     -0.23294717	      1.18886197	      1.09066975	     -0.16961214	      1.18138754	      1.08738172	     -0.29906872	      1.17862725	      1.07788002	     -0.23620036	      1.18933177	      0.93434095	     -0.23248209	      1.09288955	      0.46868664	     -0.03832264	      1.33191001	      0.50017333	     -0.30122069	      1.14149106	      0.52165234	     -0.10206796	      1.25352120	      0.54921842	     -0.25138482	      1.13582242	      0.43867505	     -0.11727581	      1.25706935	      0.46254224	     -0.23602827	      0.92852014	      0.21271138	     -0.06031387	      1.35505795	      0.18223621	     -0.30125514	      0.96772242	      0.25128135	     -0.12079871	      1.28321862	      0.22197634	     -0.27806294	      0.93088067	      0.03928280	     -0.18635282	      1.39259231	      0.05522824	     -0.26708978
      1.16667000	      1.21172556	      0.73811402	     -0.21657023	     -0.44336491	      0.76763139	     -3.37544861	    -12.77252623	      0.07462105	      0.13545830	    -23.92868480	    -11.81622461	     11.74504420	      3.44290814	     -4.98756376	      2.86683988	     -7.48807176	     -4.00683663	     -4.15438702	      9.93244633	      0.00000000	      0.00000000	      0.00000000	      0.00000000	      1.31152195	      0.72462595	     -0.13079312	      1.32874661	      0.71795700	     -0.31670995	      1.22192486	      0.73802704	     -0.21596870	      1.18496614	      0.79208334	     -0.21937683	      1.18855100	      0.78526272	     -0.27376845	      1.15625159	      0.68953114	     -0.15942597	      1.16344005	      0.69110558	     -0.28108255	      1.15984582	      0.69031836	     -0.22025426	      1.11073509	      0.35050086	     -0.10814151	      1.11535213	      0.35129295	     -0.20854418	      1.14156537	      0.44956336	     -0.03527246	      1.19944849	      0.49047699	     -0.10133724	      1.17947295	      0.40860434	     -0.11223960	      0.89556317	      0.09230782	     -0.11737009	      0.90767771	      0.09341714	     -0.17623976	      0.94205446	      0.19011347	     -0.04902819	      0.98944708	      0.22167716	     -0.10905914	      1.08110515	      0.36986696	     -0.16843136	      0.88845676	      0.11527806	     -0.18318353	      0.94049092	     -0.00742350	     -0.14377103	      1.26865814	      0.36218147	     -0.33292995	      1.27299886	      0.35839409	     -0.22895890	      1.39154977	      0.47584728	     -0.32177824	      1.32124545	      0.52712695	     -0.26535245	      1.31608345	      0.43985873	     -0.25750624	      1.31332181	      0.04925400	     -0.32105589	      1.31650857	      0.05322668	     -0.25758222	      1.38482919	      0.16353150	     -0.32742943	      1.31633197	      0.20804495	     -0.30352351	      1.22218239	      0.37052538	     -0.26177800	      1.29906872	      0.06085087	     -0.24342791	      1.41677456	      0.02940465	     -0.29713862	      1.18437173	      1.13478361	     -0.17760054	      1.18065410	      1.14189165	     -0.29272255	      1.10171299	      1.13508547	     -0.23191598	      1.18423305	      1.12616587	     -0.23855022	      1.27655558	      1.01562589	     -0.24769069	      1.16747000	      0.68392800	     -0.22472100	      1.15750000	      0.69000500	     -0.15901800	      1.16592000	      0.68997200	     -0.28456500	      1.08571400	      0.38307700	     -0.16746200	      1.22489000	      0.38063100	     -0.25872400	      0.88482800	      0.11796800	     -0.16656700	      1.30088300	      0.06419000	     -0.25750700	      1.22572800	      0.75504900	     -0.21751500	      1.21926700	      0.75507400	     -0.12117700	      1.23218900	      0.75502400	     -0.31385300	      1.07674900	      0.79110700	     -0.20761000	      1.07909500	      0.78538600	     -0.26268200	      1.08220900	      0.38251100	     -0.11708700	      1.22462500	      0.37641900	     -0.30854600	      1.08628900	      0.37605200	     -0.21522400	      1.22343500	      0.38018600	     -0.20252100	      0.88007000	      0.12168400	     -0.13361600	      1.29373100	      0.06234300	     -0.29120700	      0.88708600	      0.13139000	     -0.19303100	      1.29504500	      0.06866900	     -0.22886400	      1.11497000	      1.13997600	     -0.23359800	      1.19455600	      1.09118500	     -0.17044500	      1.18683800	      1.08797300	     -0.29989800	      1.18384400	      1.07831300	     -0.23698900	      1.19460900	      0.93488600	     -0.23339500	      1.09824200	      0.46929900	     -0.03805100	      1.33518300	      0.49971700	     -0.30142800	      1.14707600	      0.52202500	     -0.10207100	      1.25710100	      0.54942900	     -0.25182600	      1.14106500	      0.43890000	     -0.11659800	      1.25998600	      0.46266500	     -0.23635900	      0.93262600	      0.21454600	     -0.05990900	      1.35646100	      0.18165900	     -0.30089500	      0.97260500	      0.25229600	     -0.12033500	      1.28481500	      0.22187200	     -0.27808800	      0.93219400	      0.03935200	     -0.18629500	      1.39303300	      0.05429700	     -0.26650300	     12.80446693	     75.81614138	      3.59575126	      0.94524121	      0.00000000	     -0.20192255	    -19.39944552	    232.97839503	      1.44095995	      1.27737952	      0.00000000	     -0.25832880	      0.00000000	     -0.14357004	      0.00000000	      0.00000000	      0.33224231	      0.00000000	      1.16746974	      0.68392754	     -0.22472143	      1.15749991	      0.69000453	     -0.15901785	      1.16591966	      0.68997198	     -0.28456473	      1.08571351	      0.38307735	     -0.16746181	      1.22489047	      0.38063136	     -0.25872427	      0.88482815	      0.11796778	     -0.16656719	      1.30088305	      0.06419037	     -0.25750694	      1.22572780	      0.75504875	     -0.21751481	      1.21926701	      0.75507379	     -0.12117695	      1.23218870	      0.75502378	     -0.31385267	      1.07674885	      0.79110706	     -0.20760974	      1.07909548	      0.78538626	     -0.26268193	      1.08220851	      0.38251126	     -0.11708678	      1.22462499	      0.37641895	     -0.30854580	      1.08628893	      0.37605235	     -0.21522415	      1.22343504	      0.38018644	     -0.20252113	      0.88007009	      0.12168437	     -0.13361573	      1.29373097	      0.06234318	     -0.29120687	      0.88708639	      0.13138968	     -0.19303139	      1.29504538	      0.06866942	     -0.22886363	      1.11497045	      1.13997602	     -0.23359758	      1.19455612	      1.09118509	     -0.17044534	      1.18683803	      1.08797324	     -0.29989839	      1.18384421	      1.07831347	     -0.23698922	      1.19460881	      0.93488562	     -0.23339486	      1.09824157	      0.46929920	     -0.03805140	      1.33518314	      0.49971730	     -0.30142772	      1.14707601	      0.52202457	     -0.10207084	      1.25710070	      0.54942894	     -0.25182644	      1.14106512	      0.43890032	     -0.11659770	      1.25998616	      0.46266520	     -0.23635879	      0.93262601	      0.21454638	     -0.05990878	      1.35646141	      0.18165912	     -0.30089459	      0.97260469	      0.25229588	     -0.12033534	      1.28481460	      0.22187199	     -0.27808794	      0.93219388	      0.03935177	     -0.18629543	      1.39303327	      0.05429750	     -0.26650274
      1.17500000	      1.21663190	      0.73848992	     -0.21752679	     -0.63004208	      0.80878219	     -3.31467841	    -12.35281447	     -0.16389381	      0.00918874	    -24.56434431	    -13.58642019	     11.55570728	      3.58086253	     -4.79698800	      2.85362065	     -7.56390001	     -3.89439866	     -4.16830458	      9.93822318	      0.00000000	      0.00000000	      0.00000000	      0.00000000	      1.31647424	      0.72461567	     -0.13186483	      1.33348147	      0.71802658	     -0.31780452	      1.22683150	      0.73836942	     -0.21693608	      1.19004476	      0.79254777	     -0.22026596	      1.19355021	      0.78575526	     -0.27466627	      1.16106080	      0.69004552	     -0.16035935	      1.16812628	      0.69168542	     -0.28202227	      1.16459354	      0.69086547	     -0.22119081	      1.11681592	      0.35106603	     -0.10764614	      1.12145505	      0.35144928	     -0.20805018	      1.14725253	      0.45055315	     -0.03519125	      1.20499681	      0.49140490	     -0.10141565	      1.18533424	      0.40941160	     -0.11197487	      0.89963883	      0.09395916	     -0.11597876	      0.91176631	      0.09476742	     -0.17485068	      0.94683562	      0.19166976	     -0.04798537	      0.99446227	      0.22267012	     -0.10812454	      1.08720303	      0.36997257	     -0.16802131	      0.89270578	      0.11674259	     -0.18187558	      0.94024824	     -0.00796179	     -0.14307990	      1.27134317	      0.36204328	     -0.33332921	      1.27538651	      0.35831295	     -0.22934412	      1.39494019	      0.47491853	     -0.32194572	      1.32482239	      0.52669941	     -0.26574603	      1.31907360	      0.43947296	     -0.25784344	      1.31387153	      0.04882123	     -0.32108465	      1.31691751	      0.05282461	     -0.25760601	      1.38616179	      0.16261051	     -0.32736114	      1.31790244	      0.20760274	     -0.30367215	      1.22473707	      0.37074626	     -0.26230635	      1.29949202	      0.06057743	     -0.24350397	      1.41710188	      0.02814178	     -0.29683518	      1.18995741	      1.13532231	     -0.17836123	      1.18611699	      1.14247901	     -0.29347620	      1.10723688	      1.13575262	     -0.23258165	      1.18973757	      1.12672795	     -0.23931397	      1.28190530	      1.01607118	     -0.24860230	      1.17228800	      0.68434100	     -0.22541600	      1.16225000	      0.69044400	     -0.15974900	      1.17051400	      0.69047400	     -0.28530600	      1.09159500	      0.38300600	     -0.16671700	      1.22742100	      0.38091900	     -0.25912100	      0.88911100	      0.11963900	     -0.16602300	      1.30131900	      0.06399400	     -0.25739900	      1.23061300	      0.75531200	     -0.21828400	      1.22426900	      0.75528900	     -0.12191200	      1.23695600	      0.75533400	     -0.31465700	      1.08192700	      0.79177900	     -0.20789500	      1.08393800	      0.78618300	     -0.26300800	      1.08810200	      0.38266700	     -0.11634000	      1.22725100	      0.37667400	     -0.30894100	      1.09609400	      0.37502100	     -0.21534500	      1.22552500	      0.38064500	     -0.20286200	      0.88417200	      0.12352300	     -0.13311700	      1.29432600	      0.06218000	     -0.29113400	      0.89153000	      0.13282700	     -0.19248300	      1.29538900	      0.06850500	     -0.22883200	      1.12058200	      1.14062000	     -0.23427700	      1.20024600	      1.09163500	     -0.17129500	      1.19223800	      1.08846600	     -0.30064900	      1.18916800	      1.07874900	     -0.23775900	      1.19984800	      0.93534900	     -0.23423300	      1.10380100	      0.46982000	     -0.03775900	      1.33848000	      0.49928900	     -0.30161500	      1.15277600	      0.52230000	     -0.10197600	      1.26076300	      0.54962400	     -0.25226800	      1.14846100	      0.43932700	     -0.11622600	      1.26287100	      0.46269100	     -0.23667300	      0.93695900	      0.21636700	     -0.05948000	      1.35786500	      0.18105600	     -0.30053500	      0.97772500	      0.25323300	     -0.11981200	      1.28639300	      0.22173700	     -0.27814500	      0.93360200	      0.03950300	     -0.18619000	      1.39344500	      0.05336700	     -0.26594900	     11.47938050	     70.22817181	      3.89894320	      0.94669324	      0.00000000	     -0.20243619	    -18.74146717	    239.32195465	      1.73519077	      1.27760559	      0.00000000	     -0.25841727	      0.00000000	     -0.13925238	      0.00000000	      0.00000000	      0.36189139	      0.00000000	      1.17228770	      0.68434095	     -0.22541609	      1.16224992	      0.69044435	     -0.15974869	      1.17051411	      0.69047379	     -0.28530589	      1.09159541	      0.38300598	     -0.16671745	      1.22742116	      0.38091931	     -0.25912136	      0.88911122	      0.11963885	     -0.16602264	      1.30131912	      0.06399414	     -0.25739923	      1.23061275	      0.75531185	     -0.21828428	      1.22426939	      0.75528920	     -0.12191177	      1.23695612	      0.75533444	     -0.31465679	      1.08192658	      0.79177892	     -0.20789470	      1.08393764	      0.78618324	     -0.26300782	      1.08810163	      0.38266701	     -0.11633959	      1.22725058	      0.37667385	     -0.30894053	      1.09609377	      0.37502083	     -0.21534483	      1.22552502	      0.38064525	     -0.20286229	      0.88417244	      0.12352274	     -0.13311712	      1.29432583	      0.06218020	     -0.29113427	      0.89152962	      0.13282654	     -0.19248284	      1.29538882	      0.06850454	     -0.22883171	      1.12058187	      1.14062047	     -0.23427734	      1.20024586	      1.09163547	     -0.17129540	      1.19223762	      1.08846605	     -0.30064869	      1.18916786	      1.07874894	     -0.23775877	      1.19984758	      0.93534935	     -0.23423280	      1.10380101	      0.46982044	     -0.03775895	      1.33847988	      0.49928924	     -0.30161497	      1.15277553	      0.52230024	     -0.10197569	      1.26076317	      0.54962379	     -0.25226811	      1.14846075	      0.43932697	     -0.11622554	      1.26287115	      0.46269131	     -0.23667258	      0.93695891	      0.21636702	     -0.05948017	      1.35786533	      0.18105629	     -0.30053470	      0.97772479	      0.25323334	     -0.11981172	      1.28639317	      0.22173700	     -0.27814522	      0.93360174	      0.03950335	     -0.18619040	      1.39344525	      0.05336655	     -0.26594853
